<svg width="363" height="322" viewBox="0 0 363 322" fill="none" xmlns="http://www.w3.org/2000/svg">
<path d="M305.912 67.2096C316.51 68.24 338.677 64.8251 342.563 42.9228C346.449 21.0206 356.841 14.9563 361.551 14.6619" stroke="#F3603F" stroke-width="1.44928" stroke-linecap="round"/>
<ellipse cx="211.801" cy="156.549" rx="105.958" ry="105.958" fill="#0A9821"/>
<g filter="url(#filter0_d_29_464)">
<path d="M211.803 64.3857C262.703 64.3857 303.966 105.648 303.966 156.549C303.966 207.449 262.703 248.712 211.803 248.712C160.902 248.712 119.64 207.449 119.64 156.549C119.64 105.648 160.902 64.3857 211.803 64.3857Z" stroke="white" stroke-width="0.966184"/>
</g>
<path d="M258.887 133.368C258.887 136.253 257.755 139.039 255.697 141.029L207.838 187.39C205.677 189.38 202.795 190.573 199.81 190.573C196.826 190.573 193.944 189.38 191.885 187.39L167.904 164.209C165.846 162.219 164.714 159.434 164.714 156.549C164.714 153.664 165.949 150.977 168.007 148.888C170.169 146.898 172.948 145.804 175.932 145.705C178.917 145.705 181.696 146.799 183.857 148.789L199.81 164.209L239.744 125.608C241.905 123.618 244.684 122.524 247.669 122.524C250.654 122.624 253.433 123.718 255.594 125.807C257.652 127.797 258.887 130.483 258.887 133.368Z" fill="white"/>
<path d="M291.134 262.507C301.026 265.364 320.15 276.223 317.511 296.797" stroke="#F7B23B" stroke-width="1.44928" stroke-linecap="round" stroke-linejoin="round"/>
<path d="M1 233.473C16.1794 239.19 48.9037 243.29 58.3663 213.957M58.3663 213.957C59.7463 205.874 58.3665 189.887 41.8072 190.596C38.653 198.383 37.5488 213.957 58.3663 213.957ZM58.3663 213.957C65.2661 215.238 81.313 214.016 90.3023 198.876" stroke="#45AC78" stroke-width="1.44928" stroke-linecap="round" stroke-linejoin="round"/>
<ellipse cx="241.886" cy="311.844" rx="10.1563" ry="10.1563" fill="#52D93D"/>
<path d="M337.897 141.098C343.373 141.098 347.812 145.537 347.812 151.013C347.812 156.488 343.373 160.928 337.897 160.928C332.422 160.928 327.982 156.488 327.982 151.013C327.982 145.537 332.422 141.098 337.897 141.098Z" stroke="#0A9821" stroke-width="0.483092"/>
<ellipse cx="176.675" cy="11.122" rx="11.122" ry="11.122" fill="#0A9821"/>
<ellipse cx="208.255" cy="29.8945" rx="5.87366" ry="5.87366" fill="#F3603F"/>
<path d="M78.7969 106.102C84.3482 106.102 88.8486 110.603 88.8486 116.155C88.8484 121.706 84.3481 126.206 78.7969 126.207C73.2455 126.207 68.7444 121.706 68.7441 116.155C68.7441 110.603 73.2453 106.102 78.7969 106.102Z" stroke="#F7B23B" stroke-width="0.483092"/>
<path d="M102.439 267.386C108.557 267.386 113.517 272.346 113.517 278.464C113.517 284.581 108.557 289.541 102.439 289.541C96.3219 289.541 91.3623 284.581 91.3623 278.464C91.3624 272.346 96.3219 267.387 102.439 267.386Z" stroke="#0A9821" stroke-width="0.483092"/>
<ellipse cx="5.40728" cy="5.40728" rx="5.40728" ry="5.40728" transform="matrix(-1 0 0 1 215.713 294.79)" fill="#0A9821"/>
<defs>
<filter id="filter0_d_29_464" x="117.224" y="63.4193" width="189.158" height="189.158" filterUnits="userSpaceOnUse" color-interpolation-filters="sRGB">
<feFlood flood-opacity="0" result="BackgroundImageFix"/>
<feColorMatrix in="SourceAlpha" type="matrix" values="0 0 0 0 0 0 0 0 0 0 0 0 0 0 0 0 0 0 127 0" result="hardAlpha"/>
<feOffset dy="1.44928"/>
<feGaussianBlur stdDeviation="0.966184"/>
<feColorMatrix type="matrix" values="0 0 0 0 0 0 0 0 0 0 0 0 0 0 0 0 0 0 0.12 0"/>
<feBlend mode="normal" in2="BackgroundImageFix" result="effect1_dropShadow_29_464"/>
<feBlend mode="normal" in="SourceGraphic" in2="effect1_dropShadow_29_464" result="shape"/>
</filter>
</defs>
</svg>
